<?xml version="1.0" encoding="UTF-8" standalone="no"?>
<!-- Created with Inkscape (http://www.inkscape.org/) -->

<svg
   width="1200"
   height="1200"
   viewBox="0 0 317.49999 317.5"
   version="1.1"
   id="svg5"
   inkscape:version="1.2.2 (b0a8486541, 2022-12-01)"
   sodipodi:docname="icon.svg"
   xml:space="preserve"
   inkscape:export-filename="github.png"
   inkscape:export-xdpi="96"
   inkscape:export-ydpi="96"
   xmlns:inkscape="http://www.inkscape.org/namespaces/inkscape"
   xmlns:sodipodi="http://sodipodi.sourceforge.net/DTD/sodipodi-0.dtd"
   xmlns="http://www.w3.org/2000/svg"
   xmlns:svg="http://www.w3.org/2000/svg"><sodipodi:namedview
     id="namedview7"
     pagecolor="#ffffff"
     bordercolor="#000000"
     borderopacity="0.25"
     inkscape:showpageshadow="2"
     inkscape:pageopacity="0.0"
     inkscape:pagecheckerboard="0"
     inkscape:deskcolor="#d1d1d1"
     inkscape:document-units="mm"
     showgrid="false"
     inkscape:zoom="0.33489188"
     inkscape:cx="955.53228"
     inkscape:cy="289.64572"
     inkscape:window-width="1680"
     inkscape:window-height="994"
     inkscape:window-x="0"
     inkscape:window-y="0"
     inkscape:window-maximized="1"
     inkscape:current-layer="layer2" /><defs
     id="defs2"><rect
       x="112.24809"
       y="107.43394"
       width="1017.8378"
       height="458.45291"
       id="rect256" /></defs><g
     inkscape:label="Camada 1"
     inkscape:groupmode="layer"
     id="layer1"><rect
       style="fill:#ebc39e;fill-opacity:1;stroke:none;stroke-width:2.24288;stroke-linecap:round;stroke-linejoin:round;stroke-dasharray:none;stroke-opacity:1"
       id="rect3007"
       width="365.10107"
       height="345.20383"
       x="-31.578171"
       y="-9.0524254" /><g
       id="g624"
       transform="matrix(-0.56979686,0,0,0.56979686,334.38962,-565.84745)"><path
         style="fill:#9f6d4d;fill-opacity:1;stroke:none;stroke-width:9.10539;stroke-opacity:1"
         d="m 140.48054,341.43795 c 0,0 0.9488,29.69267 -0.43838,31.00228 -1.3872,1.30959 -7.05485,3.53076 -9.46553,3.53076 -2.41067,0 -18.00214,-0.33222 -20.39952,2.88803 -2.39734,3.22039 -4.06679,8.48153 -1.0689,9.2446 2.9979,0.76312 26.73742,-2.41519 27.64473,-1.2707 0.90734,1.14458 3.45635,4.79757 7.41676,4.60745 3.96038,-0.19023 8.91547,-3.83619 8.91547,-3.83619 0,0 29.98244,2.61288 29.10075,0.41863 -0.88168,-2.19411 -5.25294,-9.2478 -8.30451,-9.9451 -3.05165,-0.69727 -18.06716,-2.00432 -19.52647,-4.06647 -1.45931,-2.06205 -0.59002,-31.88235 -0.59002,-31.88235 z"
         id="path590" /><path
         style="fill:#9f6d4d;fill-opacity:1;stroke:none;stroke-width:9.10539;stroke-opacity:1"
         d="m 192.76745,345.27723 c 0,0 0.9488,29.6927 -0.43841,31.00229 -1.38718,1.30956 -7.05482,3.53073 -9.46551,3.53073 -2.41066,0 -18.00213,-0.33219 -20.3995,2.88805 -2.39735,3.22042 -4.06679,8.48153 -1.0689,9.24463 2.9979,0.76312 26.73741,-2.41517 27.64471,-1.27071 0.90736,1.14459 3.45635,4.79758 7.41675,4.60745 3.96039,-0.19022 8.91549,-3.83618 8.91549,-3.83618 0,0 29.98244,2.61283 29.10075,0.41862 -0.88171,-2.1941 -5.25294,-9.2478 -8.30454,-9.94514 -3.05163,-0.69722 -18.06714,-2.00427 -19.52645,-4.06642 -1.4593,-2.06205 -0.59002,-31.88235 -0.59002,-31.88235 z"
         id="path592" /><path
         style="fill:#656e7f;fill-opacity:1;stroke:none;stroke-width:9.10539;stroke-opacity:1"
         d="m 125.36801,314.94 c 0,0 5.84375,37.84585 16.88486,40.35598 11.04103,2.51013 30.39445,-14.0059 31.53574,-27.70344 1.14133,-13.6974 -48.4206,-12.65254 -48.4206,-12.65254 z"
         id="path594" /><path
         style="fill:#656e7f;fill-opacity:1;stroke:none;stroke-width:9.10539;stroke-opacity:1"
         d="m 177.65493,318.77931 c 0,0 5.84373,37.84582 16.88485,40.35598 11.04103,2.51013 30.39445,-14.00596 31.53573,-27.70344 1.14136,-13.69746 -48.42058,-12.65254 -48.42058,-12.65254 z"
         id="path596" /><path
         style="fill:#2d3252;fill-opacity:1;stroke:none;stroke-width:9.10539;stroke-opacity:1"
         d="m 286.79596,310.40717 c 0,0 60.12731,36.54051 72.70055,35.39273 12.57313,-1.14771 24.00475,-6.41347 24.00475,-6.41347 0,0 21.66181,-6.71702 21.90999,-17.35638 0.24788,-10.63931 -46.05072,-29.49789 -58.03964,-30.64277 -11.98883,-1.14491 -63.84777,-6.1851 -60.57565,19.01989 z"
         id="path598" /><path
         style="fill:#72819c;fill-opacity:1;stroke:none;stroke-width:9.10539;stroke-opacity:1"
         d="m 42.409583,182.7069 c 0,0 -5.936728,21.72593 -4.081205,43.11793 1.855518,21.39204 14.978894,93.27669 121.098442,105.03164 106.11946,11.75486 134.00943,-12.74145 140.6437,-13.04813 6.63428,-0.30648 34.30915,5.25299 41.03008,0.60824 6.72099,-4.64471 -86.15005,-92.39075 -128.41004,-119.70322 -17.01193,-10.99474 -58.34079,8.95079 -89.4877,6.75534 -31.146818,-2.19544 -76.069634,-34.64576 -80.793277,-22.7618 z"
         id="path600"
         sodipodi:nodetypes="cssssssc" /><path
         style="fill:#454868;fill-opacity:1;stroke:none;stroke-width:9.10539;stroke-opacity:1"
         d="m 39.568112,188.93297 c 3.76524,24.45339 52.051668,34.2908 72.808988,37.07857 20.75732,2.78784 103.63552,-17.53733 103.39745,-28.80845 -0.2594,-12.2827 -18.27341,-39.43385 -25.84113,-60.15515 C 182.36567,116.32656 174.99205,112.19308 169.6613,89.865749 166.51128,76.67238 167.92736,34.963013 130.3678,35.366944 92.808173,35.770825 89.324728,61.118772 82.615167,87.412981 75.90553,113.70716 64.135943,126.1159 64.135943,126.1159 c 0,0 -28.652474,36.28948 -24.567831,62.81707 z"
         id="path602"
         sodipodi:nodetypes="ssssssscs" /><ellipse
         style="fill:#ececec;fill-opacity:1;stroke:none;stroke-width:9.58339;stroke-opacity:1"
         id="ellipse604"
         cx="-87.666702"
         cy="79.874886"
         rx="9.9408064"
         ry="6.4349766"
         transform="scale(-1,1)" /><path
         style="fill:#1a1a22;fill-opacity:1;stroke:none;stroke-width:9.10539;stroke-opacity:1"
         d="m 93.124685,90.87528 c -1.524004,5.185143 -10.932181,0.866602 -15.249934,2.721793 -5.864368,2.51963 -13.78112,8.815987 -14.500729,7.078227 -0.719529,-1.737729 2.061815,-12.405339 6.214927,-16.011182 3.011166,-2.61435 10.824699,-5.922991 15.827453,-5.477349 3.991147,0.35582 8.771567,2.887706 7.708283,11.688511 z"
         id="path606"
         sodipodi:nodetypes="cssssc" /><g
         id="g612"
         transform="matrix(2.4184361,0,0,2.4184361,1311.3535,-407.35257)"><circle
           style="fill:#f5f5f5;fill-opacity:1;stroke:none;stroke-width:3.76499;stroke-opacity:1"
           id="circle608"
           cx="-492.23737"
           cy="199.8755"
           r="4.0925393" /><circle
           style="fill:#0a0026;fill-opacity:1;stroke:#8b38a9;stroke-width:0.906814;stroke-dasharray:none;stroke-opacity:1"
           id="circle610"
           cx="-492.23737"
           cy="199.8755"
           r="2.6479139" /></g><g
         id="g622"
         transform="matrix(2.4184361,0,0,2.4184361,1317.5039,-407.35257)"><path
           style="fill:#848fa5;fill-opacity:1;stroke:none;stroke-width:3.76499;stroke-opacity:1"
           d="m -485.03591,234.51964 c -6.62945,7.39058 -13.27893,25.64061 0.21839,42.05709 13.4973,16.4165 69.92456,16.7314 86.32584,14.16093 16.40128,-2.57047 -16.65333,-29.43833 -31.18348,-39.29911 -14.53014,-9.86078 -31.40259,-41.43578 -55.36075,-16.91891 z"
           id="path614"
           sodipodi:nodetypes="cszsc" /><path
           id="path616"
           style="fill:#2d3252;fill-opacity:1;stroke:none;stroke-width:3.76499;stroke-opacity:1"
           d="m -402.91546,273.38745 c -1.3395,5.92447 -3.58068,13.19111 -7.17372,18.34875 4.76076,-0.20425 8.77959,-0.55672 11.59774,-0.99839 8.34342,-1.30761 3.87992,-8.90479 -4.42402,-17.35036 z" /><path
           id="path618"
           style="fill:#2d3252;fill-opacity:1;stroke:none;stroke-width:3.76499;stroke-opacity:1"
           d="m -418.99871,259.28753 c -6.09814,13.78301 -13.35745,22.93596 -19.34714,28.81995 -1.0609,1.04217 -2.06338,1.96395 -3.01429,2.79879 5.46387,0.51652 10.92864,0.81675 16.11323,0.94413 5.29634,-6.06443 10.92009,-14.1067 15.89153,-24.54785 -3.13644,-2.78314 -6.45034,-5.51348 -9.64333,-8.01502 z" /><path
           id="path620"
           style="fill:#2d3252;fill-opacity:1;stroke:none;stroke-width:3.76499;stroke-opacity:1"
           d="m -438.04923,244.18975 c -7.76192,16.84884 -17.05467,27.23846 -24.37836,33.4703 -4.2243,3.59453 -7.63544,5.73647 -9.82575,6.92878 4.52862,1.74171 9.77969,3.11319 15.37838,4.17597 0.75179,-0.59164 1.51875,-1.21642 2.29857,-1.87999 8.07657,-6.87248 17.86125,-17.85605 26.0966,-34.62372 -0.40837,-0.28342 -0.8115,-0.56224 -1.19528,-0.82269 -2.70018,-1.83246 -5.48176,-4.41576 -8.37416,-7.24865 z" /></g></g><g
       id="g2185"
       transform="matrix(1.400072,0,0,1.400072,-51.874757,-68.883883)"><path
         id="path1287"
         style="fill:#d53f3c;fill-opacity:1;stroke:none;stroke-width:4.69574;stroke-opacity:1"
         d="m 197.53443,69.78094 c 15.90077,0.17099 19.95718,9.01397 22.81499,19.67617 a 5.1265763,3.3185839 0 0 1 4.33288,3.27677 5.1265763,3.3185839 0 0 1 -0.0205,0.2825 c 1.72147,0.57669 3.35274,1.43721 4.21689,2.18749 2.1418,1.85956 3.5763,7.36082 3.20523,8.25698 -0.37112,0.89617 -4.45392,-2.35063 -7.47824,-3.65003 -0.45116,-0.19384 -1.01101,-0.25614 -1.62203,-0.25583 3.51757,11.5481 8.70738,17.0261 8.70738,17.0261 0,0 14.77633,18.71459 12.66984,32.39512 -0.0887,0.57626 -0.2263,1.13675 -0.40737,1.68191 0.77862,4.29246 1.61099,10.83854 1.04673,17.34367 -0.8502,9.80198 -6.2913,40.15842 -45.87876,51.05868 -1.22325,5.47313 -3.56456,13.62393 -6.9474,15.42 -0.0487,4.17295 -0.0134,8.76917 0.37138,9.13254 0.71538,0.67536 3.63829,1.82081 4.8815,1.82081 1.24319,0 9.28388,-0.17106 10.52024,1.48965 1.23633,1.66079 2.09699,4.37386 0.55095,4.7674 -1.54605,0.39354 -13.78841,-1.24549 -14.25631,-0.65528 -0.46793,0.59026 -1.78253,2.47403 -3.82495,2.37598 -2.04242,-0.098 -4.59807,-1.97842 -4.59807,-1.97842 0,0 -1.49021,0.12993 -3.52888,0.27501 0.19336,0.95899 0.0314,1.762 -0.7563,1.96252 -1.54605,0.39356 -13.7889,-1.24547 -14.25679,-0.65526 -0.46793,0.59028 -1.78254,2.47403 -3.82495,2.37597 -2.04241,-0.0981 -4.59808,-1.97841 -4.59808,-1.97841 0,0 -15.46217,1.34766 -15.00748,0.21607 0.45472,-1.13151 2.70911,-4.7693 4.28285,-5.12892 1.57375,-0.35955 9.31726,-1.03328 10.06983,-2.09674 0.44615,-0.63044 0.46968,-6.28238 0.41533,-10.78825 -4.55126,-2.28158 -9.20126,-7.27571 -10.24617,-11.93039 -26.12265,-0.99942 -35.13872,-7.6204 -38.04603,-8.20273 -9.45943,5.47686 -26.353125,14.81223 -30.951765,14.39243 -6.4841,-0.59189 -12.37941,-3.30766 -12.37941,-3.30766 0,0 -11.171,-3.46377 -11.29899,-8.9506 -0.10034,-4.30757 14.59148,-11.22591 23.9043,-14.28719 -0.13644,-0.06 -0.2674,-0.12252 -0.39334,-0.18756 -0.009,-0.005 -0.0185,-0.009 -0.0276,-0.014 -0.1953,-0.10208 -0.37788,-0.21015 -0.54817,-0.32412 -0.007,-0.006 -0.0153,-0.0104 -0.0229,-0.0154 -0.16819,-0.11387 -0.32412,-0.2334 -0.46818,-0.35874 -0.007,-0.007 -0.015,-0.0132 -0.0224,-0.0197 -0.14097,-0.12429 -0.2702,-0.25399 -0.38821,-0.38912 -0.008,-0.0104 -0.0178,-0.0205 -0.0266,-0.0309 -0.11283,-0.1319 -0.21505,-0.26888 -0.30683,-0.41066 -0.0104,-0.0165 -0.0214,-0.0333 -0.0318,-0.05 -0.0874,-0.13984 -0.16516,-0.28413 -0.23291,-0.43311 -0.008,-0.0194 -0.0172,-0.0393 -0.0258,-0.059 -0.0638,-0.14692 -0.11865,-0.29781 -0.16416,-0.45319 -0.007,-0.0244 -0.0139,-0.0489 -0.0205,-0.0734 -0.0411,-0.15071 -0.0741,-0.30525 -0.0987,-0.46351 -0.006,-0.0351 -0.0104,-0.0706 -0.0149,-0.10624 -0.0182,-0.1387 -0.0289,-0.28098 -0.0352,-0.42514 -0.003,-0.0625 -0.005,-0.12537 -0.006,-0.18898 -8.6e-4,-0.13603 0.003,-0.27428 0.0131,-0.41486 0.005,-0.0703 0.009,-0.14094 0.0169,-0.21233 0.0133,-0.13356 0.0315,-0.26909 0.0533,-0.40644 0.0136,-0.0859 0.0284,-0.17261 0.0453,-0.26006 0.0253,-0.13028 0.0545,-0.26174 0.0871,-0.39521 0.0247,-0.10196 0.052,-0.2049 0.0809,-0.30869 0.0347,-0.12397 0.0717,-0.24906 0.11225,-0.37557 0.0359,-0.11237 0.0746,-0.22569 0.11502,-0.34004 0.0202,-0.0569 0.0423,-0.11467 0.0636,-0.17209 0.88034,-2.37768 2.714,-5.16182 5.18086,-8.16158 0.30157,-0.36657 0.61306,-0.73627 0.93309,-1.10894 0.22852,-0.26624 0.46081,-0.53354 0.6983,-0.80261 0.30341,-0.34368 0.61402,-0.68957 0.93121,-1.03737 0.28185,-0.30913 0.56848,-0.61969 0.86058,-0.93169 0.12026,-0.12845 0.24523,-0.25791 0.36715,-0.38679 2.83193,-2.99378 6.09475,-6.09881 9.54789,-9.16294 0.51848,-0.4601 1.04142,-0.91875 1.56682,-1.37602 0.32527,-0.2831 0.65196,-0.56432 0.97939,-0.84609 0.31128,-0.26784 0.62306,-0.53482 0.9359,-0.80117 0.33069,-0.28164 0.660435,-0.56306 0.992475,-0.84283 0.21459,-0.18076 0.42996,-0.35938 0.64497,-0.53927 0.28918,-0.24202 0.57792,-0.48467 0.86761,-0.72496 0.0104,-0.008 0.0216,-0.0173 0.0324,-0.0261 0.42675,-0.35389 0.85258,-0.70359 1.27966,-1.05328 0.14977,-0.12261 0.29925,-0.24466 0.449,-0.3667 6.43496,-5.2462 12.81774,-9.96762 17.59485,-13.20957 0.2505,-0.17 0.50186,-0.34702 0.75349,-0.52712 0.0894,-0.0639 0.17854,-0.1294 0.26799,-0.19456 0.1745,-0.12708 0.34927,-0.2561 0.52432,-0.38773 0.071,-0.0534 0.14218,-0.10635 0.21326,-0.16042 0.53538,-0.40749 1.07325,-0.83601 1.61408,-1.282 0.0479,-0.0394 0.0957,-0.0791 0.14359,-0.1188 0.54081,-0.44874 1.08434,-0.91374 1.63092,-1.39566 0.08,-0.0704 0.16079,-0.1454 0.24088,-0.21656 0.44186,-0.39254 0.88574,-0.79488 1.33157,-1.20576 0.20472,-0.18867 0.41038,-0.38031 0.61597,-0.57246 0.34013,-0.31789 0.68128,-0.63981 1.02382,-0.9663 0.19951,-0.19018 0.39833,-0.37875 0.59867,-0.57154 0.4929,-0.4743 0.98782,-0.95411 1.48593,-1.44196 10.25506,-10.04411 21.63292,-22.60577 35.00446,-23.39353 0.0511,-0.13638 0.10531,-0.2744 0.15481,-0.40972 3.90275,-10.68622 7.70518,-12.81781 10.4543,-24.33224 1.6245,-6.80394 0.89423,-28.31403 20.26408,-28.10571 z M 175.65535,222.8438 c -1.35873,0.11908 -2.69689,0.22928 -4.00128,0.32459 -1.31355,5.25772 -3.47939,11.71838 -6.44508,13.29237 -0.0487,4.17282 -0.0134,8.76873 0.37136,9.13208 0.71539,0.67535 3.6383,1.82079 4.88153,1.82079 0.43586,0 1.713,-0.0194 3.23376,0.0247 0.48313,-0.4729 0.96659,-0.81943 1.39846,-0.91813 1.57376,-0.35957 9.31724,-1.03374 10.06982,-2.09721 0.44616,-0.63043 0.46966,-6.28196 0.41533,-10.78778 -4.18164,-2.09627 -8.44809,-6.48261 -9.9239,-10.7915 z" /></g></g><g
     inkscape:groupmode="layer"
     id="layer2"
     inkscape:label="Camada 2"
     style="display:inline" /></svg>
